<svg width="30" height="30" viewBox="0 0 30 30" fill="none" xmlns="http://www.w3.org/2000/svg">
<path d="M14.7692 29.5385C22.9261 29.5385 29.5385 22.9261 29.5385 14.7692C29.5385 6.61241 22.9261 0 14.7692 0C6.61241 0 0 6.61241 0 14.7692C0 22.9261 6.61241 29.5385 14.7692 29.5385Z" fill="#8CA6BC"/>
<path d="M14.7676 24.8965C20.3609 24.8965 24.8951 20.3623 24.8951 14.7691C24.8951 9.17582 20.3609 4.6416 14.7676 4.6416C9.17436 4.6416 4.64014 9.17582 4.64014 14.7691C4.64014 20.3623 9.17436 24.8965 14.7676 24.8965Z" fill="white"/>
<path d="M20.5351 5.0636L26.0911 22.7867L12.9395 29.5383L8.93066 24.5449L20.5351 5.0636Z" fill="url(#paint0_linear_1753_64)"/>
<path fill-rule="evenodd" clip-rule="evenodd" d="M12.5878 13.5737L8.93066 24.5452L9.28231 24.7561L16.8779 16.0353L12.5878 13.5737Z" fill="#2B3743"/>
<path fill-rule="evenodd" clip-rule="evenodd" d="M20.1811 4.9231L12.5854 13.5736L16.8756 16.0352L20.5327 5.06376L20.1811 4.9231Z" fill="#EF4060"/>
<defs>
<linearGradient id="paint0_linear_1753_64" x1="19.2511" y1="19.4634" x2="7.37723" y2="9.29589" gradientUnits="userSpaceOnUse">
<stop offset="0.0648882" stop-color="#2B3743" stop-opacity="0"/>
<stop offset="1" stop-color="#2B3743"/>
</linearGradient>
</defs>
</svg>
