<svg width="135" height="32" viewBox="0 0 135 32" fill="none" xmlns="http://www.w3.org/2000/svg">
<path fill-rule="evenodd" clip-rule="evenodd" d="M62.9769 8.05129C62.4051 8.05129 61.9049 7.83688 61.476 7.40807C61.0472 6.97926 60.9043 6.47898 60.9043 5.90724C60.9043 5.33549 61.1187 4.83521 61.476 4.4064C61.9049 3.97759 62.4051 3.76318 62.9769 3.76318C63.5486 3.76318 64.0489 3.97759 64.4777 4.4064C64.9065 4.83521 65.1209 5.33549 65.1209 5.90724C65.1209 6.47898 64.9065 6.97926 64.4777 7.40807C64.0489 7.83688 63.5486 8.05129 62.9769 8.05129Z" fill="white"/>
<path d="M43.6781 24.6316H40.0332V7.7651H33.6011V4.76343H50.0388V7.83657H43.6066V24.6316H43.6781Z" fill="white"/>
<path d="M59.042 12.9827H58.7562C57.6841 12.9827 56.755 13.1257 55.8974 13.483C55.1113 13.8404 54.468 14.2692 53.9678 14.9839V24.6321H50.4658V10.1955H53.396L53.7534 12.1966H53.8248C54.2536 11.4819 54.8254 10.9102 55.5401 10.4814C56.2548 10.0525 57.1124 9.83814 58.1844 9.83814C58.5417 9.83814 58.8276 9.83814 59.1135 9.9096V12.9827H59.042Z" fill="white"/>
<path d="M61.2622 10.1953H64.7642V24.6319H61.2622V10.1953Z" fill="white"/>
<path d="M75.9102 24.9894C75.1241 24.9894 74.4094 24.8465 73.8376 24.5606C73.1944 24.2747 72.6941 23.9174 72.2653 23.4886H72.1938C72.1938 23.703 72.1938 23.9889 72.1938 24.3462C72.1938 24.7036 72.1938 25.1324 72.1938 25.5612V31.5645H68.6919V10.1955H71.765L71.908 11.8392H71.9794C72.4083 11.2675 72.98 10.7672 73.6947 10.4099C74.4094 10.0525 75.1955 9.83814 76.0531 9.83814C76.8393 9.83814 77.6254 9.98107 78.3401 10.2669C79.1263 10.5528 79.7695 10.9816 80.3412 11.6248C80.913 12.1966 81.4133 12.9827 81.7706 13.9118C82.128 14.8409 82.2709 15.9129 82.2709 17.1994C82.2709 18.5573 82.0565 19.7008 81.6991 20.7013C81.3418 21.7019 80.8415 22.488 80.1983 23.1313C79.5551 23.7745 78.9119 24.2747 78.1257 24.5606C77.4825 24.8465 76.6964 24.9894 75.9102 24.9894ZM75.4814 12.6969C74.8382 12.6969 74.2664 12.8398 73.6947 13.1257C73.1229 13.4116 72.6227 13.8404 72.1938 14.3406V20.7728C72.3368 20.9157 72.5512 21.1301 72.6941 21.2731C72.9085 21.416 73.1229 21.6304 73.4088 21.7019C73.6947 21.8448 73.9806 21.9878 74.2664 22.0592C74.5523 22.1307 74.9096 22.2022 75.267 22.2022C75.8387 22.2022 76.2675 22.0592 76.6964 21.8448C77.1252 21.6304 77.4825 21.2731 77.7684 20.8443C78.0543 20.4155 78.2687 19.9152 78.4116 19.3434C78.5545 18.7717 78.626 18.1285 78.626 17.3423C78.626 16.5562 78.5545 15.9129 78.4116 15.2697C78.2687 14.698 78.0543 14.1977 77.7684 13.8404C77.4825 13.483 77.1252 13.1257 76.7678 12.9827C76.4105 12.7683 75.9102 12.6969 75.4814 12.6969Z" fill="white"/>
<path d="M91.8493 20.4155C91.8493 20.1296 91.7778 19.8437 91.5634 19.6293C91.4205 19.4149 91.1346 19.272 90.8487 19.129C90.5628 18.9861 90.2055 18.9146 89.8482 18.7717C89.4908 18.7002 89.062 18.5573 88.7047 18.4858C88.2044 18.3429 87.7041 18.1999 87.2038 17.9855C86.7036 17.7711 86.2748 17.5567 85.9174 17.2708C85.5601 16.985 85.2742 16.6276 85.0598 16.1274C84.8454 15.6985 84.7739 15.1268 84.7739 14.4836C84.7739 13.6974 84.9169 12.9827 85.2027 12.411C85.4886 11.8393 85.8459 11.339 86.3462 10.9816C86.8465 10.6243 87.4182 10.3384 88.0615 10.124C88.7047 9.9096 89.4194 9.83814 90.134 9.83814C90.9917 9.83814 91.8493 9.9096 92.6354 10.0525C93.4216 10.1955 94.1363 10.4099 94.708 10.6243V13.483C94.3507 13.3401 94.0648 13.2686 93.7074 13.1971C93.3501 13.1257 92.9928 13.0542 92.6354 12.9827C92.2781 12.9113 91.9207 12.8398 91.4919 12.8398C91.1346 12.7683 90.7773 12.7683 90.4199 12.7683C89.9911 12.7683 89.6338 12.8398 89.3479 12.9113C89.062 12.9827 88.8476 13.1257 88.6332 13.1971C88.4903 13.3401 88.3473 13.483 88.2759 13.626C88.2044 13.7689 88.1329 13.9833 88.1329 14.1977C88.1329 14.555 88.2044 14.7695 88.4188 14.9839C88.5617 15.1983 88.8476 15.3412 89.1335 15.4841C89.4194 15.6271 89.7767 15.6985 90.134 15.77C90.4914 15.8415 90.7773 15.9129 91.1346 15.9844C91.6349 16.1274 92.1351 16.2703 92.6354 16.4132C93.1357 16.5562 93.5645 16.842 93.9933 17.1279C94.4221 17.4138 94.708 17.8426 94.9939 18.2714C95.2797 18.7717 95.3512 19.3434 95.3512 20.1296C95.3512 20.9157 95.2083 21.6304 94.9224 22.2736C94.6365 22.8454 94.2077 23.4171 93.636 23.7745C93.0642 24.2033 92.421 24.4892 91.6349 24.6321C90.8487 24.8465 89.9911 24.918 89.1335 24.918C88.2044 24.918 87.4182 24.8465 86.7036 24.7036C85.9889 24.5606 85.3457 24.3462 84.9169 24.1318V21.2731C85.703 21.559 86.4177 21.7734 87.0609 21.8448C87.7041 21.9163 88.3473 21.9878 88.9191 21.9878C89.3479 21.9878 89.7767 21.9878 90.134 21.9163C90.4914 21.8448 90.8487 21.7734 91.1346 21.6304C91.4205 21.4875 91.6349 21.3445 91.7778 21.1301C91.7778 20.9872 91.8493 20.7728 91.8493 20.4155Z" fill="white"/>
<path d="M107.14 24.632C106.711 24.7749 106.282 24.8464 105.711 24.9178C105.139 24.9893 104.639 24.9893 104.138 24.9893C102.923 24.9893 101.923 24.7749 101.208 24.4176C100.422 24.0602 99.9217 23.4885 99.5643 22.7023C99.3499 22.202 99.207 21.4874 99.207 20.5583V13.1256H96.4912V10.1953H99.207V6.19312H102.709V10.1953H106.854V13.1256H102.709V20.1295C102.709 20.7012 102.78 21.13 102.995 21.3444C103.281 21.7732 103.852 22.0591 104.782 22.0591C105.21 22.0591 105.568 22.0591 105.996 21.9876C106.425 21.9162 106.783 21.8447 107.14 21.7732V24.632Z" fill="white"/>
<path d="M117.292 22.1307C118.007 22.1307 118.722 22.0592 119.436 21.9163C120.151 21.7734 120.937 21.5589 121.723 21.3445V24.1318C121.295 24.3462 120.58 24.4892 119.651 24.7036C118.722 24.8465 117.721 24.9894 116.721 24.9894C115.72 24.9894 114.72 24.8465 113.79 24.5606C112.861 24.2747 112.075 23.8459 111.361 23.2742C110.646 22.7024 110.146 21.9163 109.717 20.9872C109.288 20.0581 109.145 18.9146 109.145 17.6282C109.145 16.3418 109.359 15.1983 109.717 14.1977C110.074 13.1971 110.574 12.411 111.218 11.7678C111.861 11.1246 112.576 10.6243 113.362 10.3384C114.148 9.98107 115.005 9.83814 115.863 9.83814C116.792 9.83814 117.65 9.98107 118.364 10.2669C119.151 10.5528 119.794 10.9816 120.366 11.5534C120.937 12.1251 121.366 12.9113 121.652 13.8404C121.938 14.7695 122.152 15.9129 122.152 17.1279C122.152 17.6282 122.152 18.057 122.081 18.4143H112.647C112.718 19.0576 112.861 19.6293 113.076 20.1296C113.29 20.6299 113.648 20.9872 114.076 21.2731C114.505 21.5589 114.934 21.7734 115.506 21.9163C116.149 22.0592 116.721 22.1307 117.292 22.1307ZM115.935 12.6254C115.506 12.6254 115.077 12.6969 114.72 12.8398C114.362 12.9827 114.076 13.1971 113.79 13.483C113.505 13.7689 113.362 14.1262 113.219 14.4836C113.076 14.8409 113.004 15.2697 112.933 15.6985H118.579C118.579 15.2697 118.507 14.8409 118.436 14.4836C118.293 14.1262 118.15 13.7689 117.936 13.483C117.721 13.1971 117.435 12.9827 117.078 12.8398C116.721 12.6969 116.363 12.6254 115.935 12.6254Z" fill="white"/>
<path d="M134.085 12.9827H133.799C132.727 12.9827 131.798 13.1257 130.94 13.483C130.154 13.8404 129.511 14.2692 129.01 14.9839V24.6321H125.508V10.1955H128.439L128.796 12.1966H128.867C129.296 11.4819 129.868 10.9102 130.583 10.4814C131.297 10.0525 132.155 9.83814 133.227 9.83814C133.584 9.83814 133.87 9.83814 134.156 9.9096V12.9827H134.085Z" fill="white"/>
<path d="M14.7692 29.5385C22.9261 29.5385 29.5385 22.9261 29.5385 14.7692C29.5385 6.61241 22.9261 0 14.7692 0C6.61241 0 0 6.61241 0 14.7692C0 22.9261 6.61241 29.5385 14.7692 29.5385Z" fill="#8CA6BC"/>
<path d="M14.7676 24.8965C20.3609 24.8965 24.8951 20.3623 24.8951 14.7691C24.8951 9.17582 20.3609 4.6416 14.7676 4.6416C9.17436 4.6416 4.64014 9.17582 4.64014 14.7691C4.64014 20.3623 9.17436 24.8965 14.7676 24.8965Z" fill="white"/>
<path d="M20.5351 5.06348L26.0911 22.7866L12.9395 29.5382L8.93066 24.5448L20.5351 5.06348Z" fill="url(#paint0_linear_701_163)"/>
<path fill-rule="evenodd" clip-rule="evenodd" d="M12.5878 13.5737L8.93066 24.5452L9.28231 24.7561L16.8779 16.0353L12.5878 13.5737Z" fill="#2B3743"/>
<path fill-rule="evenodd" clip-rule="evenodd" d="M20.1811 4.9231L12.5854 13.5736L16.8756 16.0352L20.5327 5.06376L20.1811 4.9231Z" fill="#EF4060"/>
<defs>
<linearGradient id="paint0_linear_701_163" x1="19.2511" y1="19.4633" x2="7.37723" y2="9.29577" gradientUnits="userSpaceOnUse">
<stop offset="0.0648882" stop-color="#2B3743" stop-opacity="0"/>
<stop offset="1" stop-color="#2B3743"/>
</linearGradient>
</defs>
</svg>
