<svg width="84" height="20" viewBox="0 0 84 20" fill="none" xmlns="http://www.w3.org/2000/svg">
<path fill-rule="evenodd" clip-rule="evenodd" d="M39.3608 5.03212C39.0034 5.03212 38.6908 4.89811 38.4228 4.63011C38.1548 4.3621 38.0654 4.04943 38.0654 3.69208C38.0654 3.33474 38.1994 3.02207 38.4228 2.75406C38.6908 2.48605 39.0034 2.35205 39.3608 2.35205C39.7181 2.35205 40.0308 2.48605 40.2988 2.75406C40.5668 3.02207 40.7008 3.33474 40.7008 3.69208C40.7008 4.04943 40.5668 4.3621 40.2988 4.63011C40.0308 4.89811 39.7181 5.03212 39.3608 5.03212Z" fill="#2B3A49"/>
<path d="M27.2991 15.3949H25.0211V4.85334H21.001V2.97729H31.2746V4.89801H27.2545V15.3949H27.2991Z" fill="#2B3A49"/>
<path d="M36.9011 8.11431H36.7225C36.0525 8.11431 35.4718 8.20364 34.9358 8.42698C34.4444 8.65032 34.0424 8.91833 33.7297 9.365V15.3951H31.541V6.37226H33.3724L33.5957 7.62296H33.6404C33.9084 7.17628 34.2657 6.81894 34.7124 6.55094C35.1591 6.28293 35.6951 6.14893 36.3651 6.14893C36.5885 6.14893 36.7671 6.14893 36.9458 6.19359V8.11431H36.9011Z" fill="#2B3A49"/>
<path d="M38.2891 6.37207H40.4778V15.395H38.2891V6.37207Z" fill="#2B3A49"/>
<path d="M47.4441 15.6185C46.9527 15.6185 46.506 15.5292 46.1487 15.3505C45.7467 15.1718 45.434 14.9485 45.166 14.6805H45.1213C45.1213 14.8145 45.1213 14.9931 45.1213 15.2165C45.1213 15.4398 45.1213 15.7078 45.1213 15.9758V19.7279H42.9326V6.37226H44.8533L44.9427 7.39962H44.9873C45.2553 7.04228 45.6127 6.72961 46.0594 6.50627C46.506 6.28293 46.9974 6.14893 47.5334 6.14893C48.0247 6.14893 48.5161 6.23826 48.9628 6.41693C49.4541 6.5956 49.8561 6.86361 50.2135 7.26562C50.5708 7.62296 50.8835 8.11431 51.1068 8.69499C51.3302 9.27567 51.4195 9.94568 51.4195 10.7497C51.4195 11.5984 51.2855 12.3131 51.0621 12.9384C50.8388 13.5638 50.5261 14.0551 50.1241 14.4571C49.7221 14.8591 49.3201 15.1718 48.8288 15.3505C48.4268 15.5292 47.9354 15.6185 47.4441 15.6185ZM47.1761 7.93564C46.774 7.93564 46.4167 8.02497 46.0594 8.20364C45.702 8.38231 45.3893 8.65032 45.1213 8.96299V12.9831C45.2107 13.0724 45.3447 13.2064 45.434 13.2958C45.568 13.3851 45.702 13.5191 45.8807 13.5638C46.0594 13.6531 46.238 13.7424 46.4167 13.7871C46.5954 13.8318 46.8187 13.8764 47.0421 13.8764C47.3994 13.8764 47.6674 13.7871 47.9354 13.6531C48.2034 13.5191 48.4268 13.2958 48.6054 13.0278C48.7841 12.7598 48.9181 12.4471 49.0074 12.0897C49.0968 11.7324 49.1414 11.3304 49.1414 10.839C49.1414 10.3477 49.0968 9.94568 49.0074 9.54367C48.9181 9.18633 48.7841 8.87366 48.6054 8.65032C48.4268 8.42698 48.2034 8.20364 47.9801 8.11431C47.7567 7.9803 47.4441 7.93564 47.1761 7.93564Z" fill="#2B3A49"/>
<path d="M57.4065 12.7598C57.4065 12.5811 57.3618 12.4024 57.2278 12.2684C57.1385 12.1344 56.9598 12.0451 56.7811 11.9557C56.6024 11.8664 56.3791 11.8217 56.1558 11.7324C55.9324 11.6877 55.6644 11.5984 55.4411 11.5537C55.1284 11.4644 54.8157 11.3751 54.5031 11.241C54.1904 11.107 53.9224 10.973 53.6991 10.7944C53.4757 10.6157 53.297 10.3924 53.163 10.0797C53.029 9.81168 52.9844 9.45434 52.9844 9.05233C52.9844 8.56098 53.0737 8.11431 53.2524 7.75696C53.4311 7.39962 53.6544 7.08695 53.9671 6.86361C54.2797 6.64027 54.6371 6.4616 55.0391 6.3276C55.4411 6.19359 55.8878 6.14893 56.3344 6.14893C56.8705 6.14893 57.4065 6.19359 57.8978 6.28293C58.3892 6.37226 58.8358 6.50627 59.1932 6.64027V8.42698C58.9698 8.33765 58.7912 8.29298 58.5678 8.24831C58.3445 8.20364 58.1211 8.15897 57.8978 8.11431C57.6745 8.06964 57.4511 8.02497 57.1831 8.02497C56.9598 7.9803 56.7365 7.9803 56.5131 7.9803C56.2451 7.9803 56.0218 8.02497 55.8431 8.06964C55.6644 8.11431 55.5304 8.20364 55.3964 8.24831C55.3071 8.33765 55.2178 8.42698 55.1731 8.51632C55.1284 8.60565 55.0838 8.73966 55.0838 8.87366C55.0838 9.097 55.1284 9.231 55.2624 9.365C55.3518 9.49901 55.5304 9.58834 55.7091 9.67768C55.8878 9.76701 56.1111 9.81168 56.3344 9.85635C56.5578 9.90102 56.7365 9.94568 56.9598 9.99035C57.2725 10.0797 57.5851 10.169 57.8978 10.2584C58.2105 10.3477 58.4785 10.5264 58.7465 10.705C59.0145 10.8837 59.1932 11.1517 59.3718 11.4197C59.5505 11.7324 59.5952 12.0897 59.5952 12.5811C59.5952 13.0724 59.5058 13.5191 59.3272 13.9211C59.1485 14.2785 58.8805 14.6358 58.5232 14.8591C58.1658 15.1271 57.7638 15.3058 57.2725 15.3951C56.7811 15.5292 56.2451 15.5738 55.7091 15.5738C55.1284 15.5738 54.6371 15.5292 54.1904 15.4398C53.7437 15.3505 53.3417 15.2165 53.0737 15.0825V13.2958C53.5651 13.4744 54.0117 13.6084 54.4137 13.6531C54.8157 13.6978 55.2178 13.7424 55.5751 13.7424C55.8431 13.7424 56.1111 13.7424 56.3344 13.6978C56.5578 13.6531 56.7811 13.6084 56.9598 13.5191C57.1385 13.4298 57.2725 13.3404 57.3618 13.2064C57.3618 13.1171 57.4065 12.9831 57.4065 12.7598Z" fill="#2B3A49"/>
<path d="M66.9631 15.3949C66.6951 15.4842 66.4271 15.5289 66.0697 15.5736C65.7124 15.6182 65.3997 15.6182 65.0871 15.6182C64.3277 15.6182 63.7024 15.4842 63.2557 15.2609C62.7643 15.0375 62.4517 14.6802 62.2283 14.1889C62.0943 13.8762 62.005 13.4295 62.005 12.8488V8.20338H60.3076V6.372H62.005V3.87061H64.1937V6.372H66.7844V8.20338H64.1937V12.5808C64.1937 12.9382 64.2384 13.2062 64.3724 13.3402C64.551 13.6082 64.9084 13.7868 65.4891 13.7868C65.7571 13.7868 65.9804 13.7868 66.2484 13.7422C66.5164 13.6975 66.7398 13.6528 66.9631 13.6082V15.3949Z" fill="#2B3A49"/>
<path d="M73.3079 13.8318C73.7546 13.8318 74.2013 13.7871 74.648 13.6978C75.0947 13.6084 75.586 13.4744 76.0774 13.3404V15.0825C75.8093 15.2165 75.3627 15.3058 74.782 15.4398C74.2013 15.5292 73.576 15.6185 72.9506 15.6185C72.3253 15.6185 71.6999 15.5292 71.1192 15.3505C70.5385 15.1718 70.0472 14.9038 69.6005 14.5465C69.1538 14.1891 68.8412 13.6978 68.5732 13.1171C68.3052 12.5364 68.2158 11.8217 68.2158 11.0177C68.2158 10.2137 68.3498 9.49901 68.5732 8.87366C68.7965 8.24831 69.1092 7.75696 69.5112 7.35495C69.9132 6.95294 70.3599 6.64027 70.8512 6.4616C71.3426 6.23826 71.8786 6.14893 72.4146 6.14893C72.9953 6.14893 73.5313 6.23826 73.978 6.41693C74.4693 6.5956 74.8713 6.86361 75.2287 7.22095C75.586 7.57829 75.854 8.06964 76.0327 8.65032C76.2114 9.231 76.3454 9.94568 76.3454 10.705C76.3454 11.0177 76.3454 11.2857 76.3007 11.5091H70.4045C70.4492 11.9111 70.5385 12.2684 70.6726 12.5811C70.8066 12.8938 71.0299 13.1171 71.2979 13.2958C71.5659 13.4744 71.8339 13.6084 72.1913 13.6978C72.5933 13.7871 72.9506 13.8318 73.3079 13.8318ZM72.4593 7.89097C72.1913 7.89097 71.9233 7.93563 71.6999 8.02497C71.4766 8.11431 71.2979 8.24831 71.1192 8.42698C70.9406 8.60565 70.8512 8.82899 70.7619 9.05233C70.6725 9.27567 70.6279 9.54367 70.5832 9.81168H74.112C74.112 9.54367 74.0673 9.27567 74.0226 9.05233C73.9333 8.82899 73.844 8.60565 73.71 8.42698C73.576 8.24831 73.3973 8.11431 73.1739 8.02497C72.9506 7.93563 72.7273 7.89097 72.4593 7.89097Z" fill="#2B3A49"/>
<path d="M83.8035 8.11431H83.6248C82.9548 8.11431 82.3741 8.20364 81.8381 8.42698C81.3468 8.65032 80.9448 8.91833 80.6321 9.365V15.3951H78.4434V6.37226H80.2747L80.4981 7.62296H80.5427C80.8108 7.17628 81.1681 6.81894 81.6148 6.55094C82.0615 6.28293 82.5975 6.14893 83.2675 6.14893C83.4908 6.14893 83.6695 6.14893 83.8482 6.19359V8.11431H83.8035Z" fill="#2B3A49"/>
<path d="M9.23077 18.4615C14.3288 18.4615 18.4615 14.3288 18.4615 9.23077C18.4615 4.13276 14.3288 0 9.23077 0C4.13276 0 0 4.13276 0 9.23077C0 14.3288 4.13276 18.4615 9.23077 18.4615Z" fill="#8CA6BC"/>
<path d="M9.23006 15.5602C12.7258 15.5602 15.5597 12.7263 15.5597 9.23055C15.5597 5.73477 12.7258 2.90088 9.23006 2.90088C5.73428 2.90088 2.90039 5.73477 2.90039 9.23055C2.90039 12.7263 5.73428 15.5602 9.23006 15.5602Z" fill="white"/>
<path d="M12.8348 3.1648L16.3073 14.2417L8.08753 18.4615L5.58203 15.3406L12.8348 3.1648Z" fill="url(#paint0_linear_1274_1362)"/>
<path fill-rule="evenodd" clip-rule="evenodd" d="M7.86775 8.48364L5.58203 15.3408L5.80181 15.4727L10.5491 10.0221L7.86775 8.48364Z" fill="#2B3743"/>
<path fill-rule="evenodd" clip-rule="evenodd" d="M12.6135 3.0769L7.86621 8.4835L10.5475 10.022L12.8332 3.16482L12.6135 3.0769Z" fill="#EF4060"/>
<defs>
<linearGradient id="paint0_linear_1274_1362" x1="12.0323" y1="12.1647" x2="4.61113" y2="5.80998" gradientUnits="userSpaceOnUse">
<stop offset="0.0648882" stop-color="#2B3743" stop-opacity="0"/>
<stop offset="1" stop-color="#2B3743"/>
</linearGradient>
</defs>
</svg>
